{
    "accessors": {
        "accessor_101": {
            "bufferView": "bufferView_108",
            "byteOffset": 2097024,
            "byteStride": 12,
            "componentType": 5126,
            "count": 4254,
            "max": [
                26.9492,
                14.4908,
                1.23859
            ],
            "min": [
                0.414925,
                -14.4908,
                -1.35148
            ],
            "type": "VEC3"
        },
        "accessor_103": {
            "bufferView": "bufferView_108",
            "byteOffset": 2148072,
            "byteStride": 12,
            "componentType": 5126,
            "count": 4254,
            "max": [
                1,
                1,
                0.999241
            ],
            "min": [
                -0.966439,
                -1,
                -0.999191
            ],
            "type": "VEC3"
        },
        "accessor_105": {
            "bufferView": "bufferView_108",
            "byteOffset": 2199120,
            "byteStride": 8,
            "componentType": 5126,
            "count": 4254,
            "max": [
                1,
                1
            ],
            "min": [
                0,
                0
            ],
            "type": "VEC2"
        },
        "accessor_71": {
            "bufferView": "bufferView_107",
            "byteOffset": 0,
            "byteStride": 2,
            "componentType": 5123,
            "count": 65532,
            "max": [
                32765
            ],
            "min": [
                0
            ],
            "type": "SCALAR"
        },
        "accessor_73": {
            "bufferView": "bufferView_108",
            "byteOffset": 0,
            "byteStride": 12,
            "componentType": 5126,
            "count": 65532,
            "max": [
                37.4626,
                14.4908,
                6.10213
            ],
            "min": [
                -4.07415,
                -14.4908,
                -1.93111
            ],
            "type": "VEC3"
        },
        "accessor_75": {
            "bufferView": "bufferView_108",
            "byteOffset": 786384,
            "byteStride": 12,
            "componentType": 5126,
            "count": 65532,
            "max": [
                1,
                1,
                1
            ],
            "min": [
                -1,
                -1,
                -1
            ],
            "type": "VEC3"
        },
        "accessor_77": {
            "bufferView": "bufferView_108",
            "byteOffset": 1572768,
            "byteStride": 8,
            "componentType": 5126,
            "count": 65532,
            "max": [
                0.990279,
                1.0424
            ],
            "min": [
                0.00431824,
                0.0125264
            ],
            "type": "VEC2"
        },
        "accessor_81": {
            "bufferView": "bufferView_107",
            "byteOffset": 131064,
            "byteStride": 2,
            "componentType": 5123,
            "count": 378,
            "max": [
                188
            ],
            "min": [
                0
            ],
            "type": "SCALAR"
        },
        "accessor_90": {
            "bufferView": "bufferView_107",
            "byteOffset": 131820,
            "byteStride": 2,
            "componentType": 5123,
            "count": 408,
            "max": [
                581
            ],
            "min": [
                0
            ],
            "type": "SCALAR"
        },
        "accessor_99": {
            "bufferView": "bufferView_107",
            "byteOffset": 132636,
            "byteStride": 2,
            "componentType": 5123,
            "count": 3468,
            "max": [
                2519
            ],
            "min": [
                0
            ],
            "type": "SCALAR"
        }
    },
    "animations": {},
    "asset": {
        "generator": "collada2gltf@8f1f989390ac62ae7ffcc36d31b3d6be127545a6",
        "premultipliedAlpha": true,
        "profile": {
            "api": "WebGL",
            "version": "1.0.2"
        },
        "version": "1.0.1"
    },
    "bufferViews": {
        "bufferView_107": {
            "buffer": "t134",
            "byteLength": 139572,
            "byteOffset": 0,
            "target": 34963
        },
        "bufferView_108": {
            "buffer": "t134",
            "byteLength": 2233152,
            "byteOffset": 139572,
            "target": 34962
        }
    },
    "buffers": {
        "t134": {
            "byteLength": 2372724,
            "type": "arraybuffer",
            "uri": "data:application/octet-stream;base64,"
        }
    },
    "images": {
        "texture_png_001": {
            "name": "texture_png_001",
            "uri": "data:application/octet-stream;base64,"
        }
    },
    "materials": {
        "DefaultWhite-effect": {
            "name": "DefaultWhite",
            "technique": "technique0",
            "values": {
                "ambient": [
                    0,
                    0,
                    0,
                    1
                ],
                "diffuse": "texture_texture_png_001",
                "emission": [
                    0,
                    0,
                    0,
                    1
                ],
                "shininess": 256,
                "specular": [
                    0.5,
                    0.5,
                    0.5,
                    1
                ]
            }
        },
        "Transparent-effect": {
            "name": "Transparent",
            "technique": "technique1",
            "values": {
                "ambient": [
                    0,
                    0,
                    0,
                    1
                ],
                "diffuse": [
                    0.8,
                    0.8,
                    0.8,
                    1
                ],
                "emission": [
                    0,
                    0,
                    0,
                    1
                ],
                "shininess": 256,
                "specular": [
                    1,
                    1,
                    1,
                    1
                ],
                "transparency": 0.3
            }
        },
        "Transparent_001-effect": {
            "name": "Transparent_001",
            "technique": "technique0",
            "values": {
                "ambient": [
                    0,
                    0,
                    0,
                    1
                ],
                "diffuse": "texture_texture_png_001",
                "emission": [
                    0,
                    0,
                    0,
                    1
                ],
                "shininess": 256,
                "specular": [
                    1,
                    1,
                    1,
                    1
                ]
            }
        }
    },
    "meshes": {
        "noze2-mesh": {
            "name": "noze2",
            "primitives": [
                {
                    "attributes": {
                        "NORMAL": "accessor_75",
                        "POSITION": "accessor_73",
                        "TEXCOORD_0": "accessor_77"
                    },
                    "indices": "accessor_71",
                    "material": "DefaultWhite-effect",
                    "mode": 4
                }
            ]
        },
        "noze2-meshsplit_0": {
            "name": "noze21",
            "primitives": [
                {
                    "attributes": {
                        "NORMAL": "accessor_103",
                        "POSITION": "accessor_101",
                        "TEXCOORD_0": "accessor_105"
                    },
                    "indices": "accessor_81",
                    "material": "DefaultWhite-effect",
                    "mode": 4
                },
                {
                    "attributes": {
                        "NORMAL": "accessor_103",
                        "POSITION": "accessor_101",
                        "TEXCOORD_0": "accessor_105"
                    },
                    "indices": "accessor_90",
                    "material": "Transparent_001-effect",
                    "mode": 4
                },
                {
                    "attributes": {
                        "NORMAL": "accessor_103",
                        "POSITION": "accessor_101"
                    },
                    "indices": "accessor_99",
                    "material": "Transparent-effect",
                    "mode": 4
                }
            ]
        }
    },
    "nodes": {
        "node_1": {
            "children": [
                "noze2"
            ],
            "matrix": [
                1,
                0,
                0,
                0,
                0,
                0,
                -1,
                0,
                0,
                1,
                0,
                0,
                0,
                0,
                0,
                1
            ],
            "name": "Y_UP_Transform"
        },
        "noze2": {
            "children": [],
            "matrix": [
                -1,
                -1.50996e-07,
                0,
                0,
                1.50996e-07,
                -1,
                0,
                0,
                0,
                0,
                1,
                0,
                13.8484,
                -0.401855,
                -1.25187,
                1
            ],
            "meshes": [
                "noze2-mesh",
                "noze2-meshsplit_0"
            ],
            "name": "noze2"
        }
    },
    "programs": {
        "program_0": {
            "attributes": [
                "a_normal",
                "a_position",
                "a_texcoord0"
            ],
            "fragmentShader": "t1340FS",
            "vertexShader": "t1340VS"
        },
        "program_1": {
            "attributes": [
                "a_normal",
                "a_position"
            ],
            "fragmentShader": "t1341FS",
            "vertexShader": "t1341VS"
        }
    },
    "samplers": {
        "sampler_0": {
            "magFilter": 9729,
            "minFilter": 9729,
            "wrapS": 10497,
            "wrapT": 10497
        }
    },
    "scene": "defaultScene",
    "scenes": {
        "defaultScene": {
            "nodes": [
                "node_1"
            ]
        }
    },
    "shaders": {
        "t1340FS": {
            "type": 35632,
            "uri": "data:text/plain;base64,"
        },
        "t1340VS": {
            "type": 35633,
            "uri": "data:text/plain;base64,"
        },
        "t1341FS": {
            "type": 35632,
            "uri": "data:text/plain;base64,"
        },
        "t1341VS": {
            "type": 35633,
            "uri": "data:text/plain;base64,"
        }
    },
    "skins": {},
    "techniques": {
        "technique0": {
            "attributes": {
                "a_normal": "normal",
                "a_position": "position",
                "a_texcoord0": "texcoord0"
            },
            "parameters": {
                "ambient": {
                    "type": 35666
                },
                "diffuse": {
                    "type": 35678
                },
                "emission": {
                    "type": 35666
                },
                "modelViewMatrix": {
                    "semantic": "MODELVIEW",
                    "type": 35676
                },
                "normal": {
                    "semantic": "NORMAL",
                    "type": 35665
                },
                "normalMatrix": {
                    "semantic": "MODELVIEWINVERSETRANSPOSE",
                    "type": 35675
                },
                "position": {
                    "semantic": "POSITION",
                    "type": 35665
                },
                "projectionMatrix": {
                    "semantic": "PROJECTION",
                    "type": 35676
                },
                "shininess": {
                    "type": 5126
                },
                "specular": {
                    "type": 35666
                },
                "texcoord0": {
                    "semantic": "TEXCOORD_0",
                    "type": 35664
                }
            },
            "program": "program_0",
            "states": {
                "enable": [
                    2929,
                    2884
                ]
            },
            "uniforms": {
                "u_ambient": "ambient",
                "u_diffuse": "diffuse",
                "u_emission": "emission",
                "u_modelViewMatrix": "modelViewMatrix",
                "u_normalMatrix": "normalMatrix",
                "u_projectionMatrix": "projectionMatrix",
                "u_shininess": "shininess",
                "u_specular": "specular"
            }
        },
        "technique1": {
            "attributes": {
                "a_normal": "normal",
                "a_position": "position"
            },
            "parameters": {
                "ambient": {
                    "type": 35666
                },
                "diffuse": {
                    "type": 35666
                },
                "emission": {
                    "type": 35666
                },
                "modelViewMatrix": {
                    "semantic": "MODELVIEW",
                    "type": 35676
                },
                "normal": {
                    "semantic": "NORMAL",
                    "type": 35665
                },
                "normalMatrix": {
                    "semantic": "MODELVIEWINVERSETRANSPOSE",
                    "type": 35675
                },
                "position": {
                    "semantic": "POSITION",
                    "type": 35665
                },
                "projectionMatrix": {
                    "semantic": "PROJECTION",
                    "type": 35676
                },
                "shininess": {
                    "type": 5126
                },
                "specular": {
                    "type": 35666
                },
                "transparency": {
                    "type": 5126
                }
            },
            "program": "program_1",
            "states": {
                "enable": [
                    2929,
                    3042
                ],
                "functions": {
                    "blendEquationSeparate": [
                        32774,
                        32774
                    ],
                    "blendFuncSeparate": [
                        1,
                        771,
                        1,
                        771
                    ],
                    "depthMask": [
                        false
                    ]
                }
            },
            "uniforms": {
                "u_ambient": "ambient",
                "u_diffuse": "diffuse",
                "u_emission": "emission",
                "u_modelViewMatrix": "modelViewMatrix",
                "u_normalMatrix": "normalMatrix",
                "u_projectionMatrix": "projectionMatrix",
                "u_shininess": "shininess",
                "u_specular": "specular",
                "u_transparency": "transparency"
            }
        }
    },
    "textures": {
        "texture_texture_png_001": {
            "format": 6408,
            "internalFormat": 6408,
            "sampler": "sampler_0",
            "source": "texture_png_001",
            "target": 3553,
            "type": 5121
        }
    }
}