{
    "accessors": {
        "accessor_55": {
            "bufferView": "bufferView_69",
            "byteOffset": 0,
            "byteStride": 2,
            "componentType": 5123,
            "count": 34686,
            "max": [
                17342
            ],
            "min": [
                0
            ],
            "type": "SCALAR"
        },
        "accessor_58": {
            "bufferView": "bufferView_69",
            "byteOffset": 69372,
            "byteStride": 2,
            "componentType": 5123,
            "count": 498,
            "max": [
                34934
            ],
            "min": [
                0
            ],
            "type": "SCALAR"
        },
        "accessor_61": {
            "bufferView": "bufferView_69",
            "byteOffset": 70368,
            "byteStride": 2,
            "componentType": 5123,
            "count": 324,
            "max": [
                35345
            ],
            "min": [
                0
            ],
            "type": "SCALAR"
        },
        "accessor_63": {
            "bufferView": "bufferView_70",
            "byteOffset": 0,
            "byteStride": 12,
            "componentType": 5126,
            "count": 35508,
            "max": [
                2.92194,
                4.919,
                1.06593
            ],
            "min": [
                -2.92177,
                -4.91938,
                -1.066
            ],
            "type": "VEC3"
        },
        "accessor_65": {
            "bufferView": "bufferView_70",
            "byteOffset": 426096,
            "byteStride": 12,
            "componentType": 5126,
            "count": 35508,
            "max": [
                1,
                1,
                1
            ],
            "min": [
                -1,
                -1,
                -1
            ],
            "type": "VEC3"
        },
        "accessor_67": {
            "bufferView": "bufferView_70",
            "byteOffset": 852192,
            "byteStride": 8,
            "componentType": 5126,
            "count": 35508,
            "max": [
                1,
                1
            ],
            "min": [
                0,
                0
            ],
            "type": "VEC2"
        }
    },
    "animations": {},
    "asset": {
        "generator": "collada2gltf@8f1f989390ac62ae7ffcc36d31b3d6be127545a6",
        "premultipliedAlpha": true,
        "profile": {
            "api": "WebGL",
            "version": "1.0.2"
        },
        "version": "1.0.1"
    },
    "bufferViews": {
        "bufferView_69": {
            "buffer": "ulac",
            "byteLength": 71016,
            "byteOffset": 0,
            "target": 34963
        },
        "bufferView_70": {
            "buffer": "ulac",
            "byteLength": 1136256,
            "byteOffset": 71016,
            "target": 34962
        }
    },
    "buffers": {
        "ulac": {
            "byteLength": 1207272,
            "type": "arraybuffer",
            "uri": "data:application/octet-stream;base64,"
        }
    },
    "images": {
        "prop_png_001": {
            "name": "prop_png_001",
            "uri": "data:application/octet-stream;base64,"
        },
        "texture_png_001": {
            "name": "texture_png_001",
            "uri": "data:application/octet-stream;base64,"
        }
    },
    "materials": {
        "DefaultWhite-effect": {
            "name": "DefaultWhite",
            "technique": "technique0",
            "values": {
                "ambient": [
                    0,
                    0,
                    0,
                    1
                ],
                "diffuse": "texture_texture_png_001",
                "emission": [
                    0,
                    0,
                    0,
                    1
                ],
                "shininess": 256,
                "specular": [
                    0.5,
                    0.5,
                    0.5,
                    1
                ]
            }
        },
        "transparent-effect": {
            "name": "transparent",
            "technique": "technique1",
            "values": {
                "ambient": [
                    0,
                    0,
                    0,
                    1
                ],
                "diffuse": "texture_prop_png_001",
                "emission": [
                    0,
                    0,
                    0,
                    1
                ],
                "shininess": 256,
                "specular": [
                    1,
                    1,
                    1,
                    1
                ]
            }
        },
        "transparent_001-effect": {
            "name": "transparent_001",
            "technique": "technique2",
            "values": {
                "ambient": [
                    0,
                    0,
                    0,
                    1
                ],
                "diffuse": [
                    0.8,
                    0.8,
                    0.8,
                    1
                ],
                "emission": [
                    0,
                    0,
                    0,
                    1
                ],
                "shininess": 256,
                "specular": [
                    1,
                    1,
                    1,
                    1
                ],
                "transparency": 0.3
            }
        }
    },
    "meshes": {
        "ailes-mesh": {
            "name": "ailes",
            "primitives": [
                {
                    "attributes": {
                        "NORMAL": "accessor_65",
                        "POSITION": "accessor_63",
                        "TEXCOORD_0": "accessor_67"
                    },
                    "indices": "accessor_55",
                    "material": "DefaultWhite-effect",
                    "mode": 4
                },
                {
                    "attributes": {
                        "NORMAL": "accessor_65",
                        "POSITION": "accessor_63"
                    },
                    "indices": "accessor_58",
                    "material": "transparent_001-effect",
                    "mode": 4
                },
                {
                    "attributes": {
                        "NORMAL": "accessor_65",
                        "POSITION": "accessor_63",
                        "TEXCOORD_0": "accessor_67"
                    },
                    "indices": "accessor_61",
                    "material": "transparent-effect",
                    "mode": 4
                }
            ]
        }
    },
    "nodes": {
        "ailes": {
            "children": [],
            "matrix": [
                -1,
                -1.50996e-07,
                0,
                0,
                1.50996e-07,
                -1,
                0,
                0,
                0,
                0,
                1,
                0,
                0,
                0,
                0,
                1
            ],
            "meshes": [
                "ailes-mesh"
            ],
            "name": "ailes"
        },
        "node_1": {
            "children": [
                "ailes"
            ],
            "matrix": [
                1,
                0,
                0,
                0,
                0,
                0,
                -1,
                0,
                0,
                1,
                0,
                0,
                0,
                0,
                0,
                1
            ],
            "name": "Y_UP_Transform"
        }
    },
    "programs": {
        "program_0": {
            "attributes": [
                "a_normal",
                "a_position",
                "a_texcoord0"
            ],
            "fragmentShader": "ulac0FS",
            "vertexShader": "ulac0VS"
        },
        "program_1": {
            "attributes": [
                "a_normal",
                "a_position",
                "a_texcoord0"
            ],
            "fragmentShader": "ulac1FS",
            "vertexShader": "ulac1VS"
        },
        "program_2": {
            "attributes": [
                "a_normal",
                "a_position"
            ],
            "fragmentShader": "ulac2FS",
            "vertexShader": "ulac2VS"
        }
    },
    "samplers": {
        "sampler_0": {
            "magFilter": 9729,
            "minFilter": 9729,
            "wrapS": 10497,
            "wrapT": 10497
        }
    },
    "scene": "defaultScene",
    "scenes": {
        "defaultScene": {
            "nodes": [
                "node_1"
            ]
        }
    },
    "shaders": {
        "ulac0FS": {
            "type": 35632,
            "uri": "data:text/plain;base64,"
        },
        "ulac0VS": {
            "type": 35633,
            "uri": "data:text/plain;base64,"
        },
        "ulac1FS": {
            "type": 35632,
            "uri": "data:text/plain;base64,"
        },
        "ulac1VS": {
            "type": 35633,
            "uri": "data:text/plain;base64,"
        },
        "ulac2FS": {
            "type": 35632,
            "uri": "data:text/plain;base64,"
        },
        "ulac2VS": {
            "type": 35633,
            "uri": "data:text/plain;base64,"
        }
    },
    "skins": {},
    "techniques": {
        "technique0": {
            "attributes": {
                "a_normal": "normal",
                "a_position": "position",
                "a_texcoord0": "texcoord0"
            },
            "parameters": {
                "ambient": {
                    "type": 35666
                },
                "diffuse": {
                    "type": 35678
                },
                "emission": {
                    "type": 35666
                },
                "modelViewMatrix": {
                    "semantic": "MODELVIEW",
                    "type": 35676
                },
                "normal": {
                    "semantic": "NORMAL",
                    "type": 35665
                },
                "normalMatrix": {
                    "semantic": "MODELVIEWINVERSETRANSPOSE",
                    "type": 35675
                },
                "position": {
                    "semantic": "POSITION",
                    "type": 35665
                },
                "projectionMatrix": {
                    "semantic": "PROJECTION",
                    "type": 35676
                },
                "shininess": {
                    "type": 5126
                },
                "specular": {
                    "type": 35666
                },
                "texcoord0": {
                    "semantic": "TEXCOORD_0",
                    "type": 35664
                }
            },
            "program": "program_0",
            "states": {
                "enable": [
                    2929,
                    2884
                ]
            },
            "uniforms": {
                "u_ambient": "ambient",
                "u_diffuse": "diffuse",
                "u_emission": "emission",
                "u_modelViewMatrix": "modelViewMatrix",
                "u_normalMatrix": "normalMatrix",
                "u_projectionMatrix": "projectionMatrix",
                "u_shininess": "shininess",
                "u_specular": "specular"
            }
        },
        "technique1": {
            "attributes": {
                "a_normal": "normal",
                "a_position": "position",
                "a_texcoord0": "texcoord0"
            },
            "parameters": {
                "ambient": {
                    "type": 35666
                },
                "diffuse": {
                    "type": 35678
                },
                "emission": {
                    "type": 35666
                },
                "modelViewMatrix": {
                    "semantic": "MODELVIEW",
                    "type": 35676
                },
                "normal": {
                    "semantic": "NORMAL",
                    "type": 35665
                },
                "normalMatrix": {
                    "semantic": "MODELVIEWINVERSETRANSPOSE",
                    "type": 35675
                },
                "position": {
                    "semantic": "POSITION",
                    "type": 35665
                },
                "projectionMatrix": {
                    "semantic": "PROJECTION",
                    "type": 35676
                },
                "shininess": {
                    "type": 5126
                },
                "specular": {
                    "type": 35666
                },
                "texcoord0": {
                    "semantic": "TEXCOORD_0",
                    "type": 35664
                }
            },
            "program": "program_1",
            "states": {
                "enable": [
                    2929,
                    3042
                ],
                "functions": {
                    "blendEquationSeparate": [
                        32774,
                        32774
                    ],
                    "blendFuncSeparate": [
                        1,
                        771,
                        1,
                        771
                    ],
                    "depthMask": [
                        false
                    ]
                }
            },
            "uniforms": {
                "u_ambient": "ambient",
                "u_diffuse": "diffuse",
                "u_emission": "emission",
                "u_modelViewMatrix": "modelViewMatrix",
                "u_normalMatrix": "normalMatrix",
                "u_projectionMatrix": "projectionMatrix",
                "u_shininess": "shininess",
                "u_specular": "specular"
            }
        },
        "technique2": {
            "attributes": {
                "a_normal": "normal",
                "a_position": "position"
            },
            "parameters": {
                "ambient": {
                    "type": 35666
                },
                "diffuse": {
                    "type": 35666
                },
                "emission": {
                    "type": 35666
                },
                "modelViewMatrix": {
                    "semantic": "MODELVIEW",
                    "type": 35676
                },
                "normal": {
                    "semantic": "NORMAL",
                    "type": 35665
                },
                "normalMatrix": {
                    "semantic": "MODELVIEWINVERSETRANSPOSE",
                    "type": 35675
                },
                "position": {
                    "semantic": "POSITION",
                    "type": 35665
                },
                "projectionMatrix": {
                    "semantic": "PROJECTION",
                    "type": 35676
                },
                "shininess": {
                    "type": 5126
                },
                "specular": {
                    "type": 35666
                },
                "transparency": {
                    "type": 5126
                }
            },
            "program": "program_2",
            "states": {
                "enable": [
                    2929,
                    3042
                ],
                "functions": {
                    "blendEquationSeparate": [
                        32774,
                        32774
                    ],
                    "blendFuncSeparate": [
                        1,
                        771,
                        1,
                        771
                    ],
                    "depthMask": [
                        false
                    ]
                }
            },
            "uniforms": {
                "u_ambient": "ambient",
                "u_diffuse": "diffuse",
                "u_emission": "emission",
                "u_modelViewMatrix": "modelViewMatrix",
                "u_normalMatrix": "normalMatrix",
                "u_projectionMatrix": "projectionMatrix",
                "u_shininess": "shininess",
                "u_specular": "specular",
                "u_transparency": "transparency"
            }
        }
    },
    "textures": {
        "texture_prop_png_001": {
            "format": 6408,
            "internalFormat": 6408,
            "sampler": "sampler_0",
            "source": "prop_png_001",
            "target": 3553,
            "type": 5121
        },
        "texture_texture_png_001": {
            "format": 6408,
            "internalFormat": 6408,
            "sampler": "sampler_0",
            "source": "texture_png_001",
            "target": 3553,
            "type": 5121
        }
    }
}