{
    "accessors": {
        "accessor_102": {
            "bufferView": "bufferView_137",
            "byteOffset": 23136,
            "byteStride": 2,
            "componentType": 5123,
            "count": 39132,
            "max": [
                19565
            ],
            "min": [
                0
            ],
            "type": "SCALAR"
        },
        "accessor_104": {
            "bufferView": "bufferView_138",
            "byteOffset": 370176,
            "byteStride": 12,
            "componentType": 5126,
            "count": 39132,
            "max": [
                1.89954,
                10.2261,
                1.9489
            ],
            "min": [
                -27.8831,
                -10.2261,
                -3.7834
            ],
            "type": "VEC3"
        },
        "accessor_106": {
            "bufferView": "bufferView_138",
            "byteOffset": 839760,
            "byteStride": 12,
            "componentType": 5126,
            "count": 39132,
            "max": [
                1,
                1,
                1
            ],
            "min": [
                -1,
                -1,
                -1
            ],
            "type": "VEC3"
        },
        "accessor_108": {
            "bufferView": "bufferView_138",
            "byteOffset": 1309344,
            "byteStride": 8,
            "componentType": 5126,
            "count": 39132,
            "max": [
                0.995554,
                0.995108
            ],
            "min": [
                0.000941981,
                0.00907999
            ],
            "type": "VEC2"
        },
        "accessor_129": {
            "bufferView": "bufferView_137",
            "byteOffset": 101400,
            "byteStride": 2,
            "componentType": 5123,
            "count": 1806,
            "max": [
                902
            ],
            "min": [
                0
            ],
            "type": "SCALAR"
        },
        "accessor_131": {
            "bufferView": "bufferView_138",
            "byteOffset": 1622400,
            "byteStride": 12,
            "componentType": 5126,
            "count": 1806,
            "max": [
                8.63801,
                1.17276,
                0.314979
            ],
            "min": [
                -8.63801,
                -1.17276,
                -0.314976
            ],
            "type": "VEC3"
        },
        "accessor_133": {
            "bufferView": "bufferView_138",
            "byteOffset": 1644072,
            "byteStride": 12,
            "componentType": 5126,
            "count": 1806,
            "max": [
                0.11194,
                0.995239,
                0.820716
            ],
            "min": [
                -0.639273,
                -0.995239,
                0.0974633
            ],
            "type": "VEC3"
        },
        "accessor_21": {
            "bufferView": "bufferView_137",
            "byteOffset": 0,
            "byteStride": 2,
            "componentType": 5123,
            "count": 1920,
            "max": [
                959
            ],
            "min": [
                0
            ],
            "type": "SCALAR"
        },
        "accessor_23": {
            "bufferView": "bufferView_138",
            "byteOffset": 0,
            "byteStride": 12,
            "componentType": 5126,
            "count": 1920,
            "max": [
                0.0268402,
                2.22683,
                0.023134
            ],
            "min": [
                -0.0249767,
                -0.110665,
                -0.023134
            ],
            "type": "VEC3"
        },
        "accessor_25": {
            "bufferView": "bufferView_138",
            "byteOffset": 23040,
            "byteStride": 12,
            "componentType": 5126,
            "count": 1920,
            "max": [
                0.99476,
                0.999645,
                0.998846
            ],
            "min": [
                -0.999238,
                -0.999657,
                -0.998914
            ],
            "type": "VEC3"
        },
        "accessor_27": {
            "bufferView": "bufferView_138",
            "byteOffset": 46080,
            "byteStride": 8,
            "componentType": 5126,
            "count": 1920,
            "max": [
                0.644736,
                0.05567
            ],
            "min": [
                0.449262,
                0.012879
            ],
            "type": "VEC2"
        },
        "accessor_48": {
            "bufferView": "bufferView_137",
            "byteOffset": 3840,
            "byteStride": 2,
            "componentType": 5123,
            "count": 8640,
            "max": [
                4319
            ],
            "min": [
                0
            ],
            "type": "SCALAR"
        },
        "accessor_50": {
            "bufferView": "bufferView_138",
            "byteOffset": 61440,
            "byteStride": 12,
            "componentType": 5126,
            "count": 8640,
            "max": [
                7.94205,
                0.17736,
                1.42352
            ],
            "min": [
                -7.94205,
                -0.17736,
                -1.42352
            ],
            "type": "VEC3"
        },
        "accessor_52": {
            "bufferView": "bufferView_138",
            "byteOffset": 165120,
            "byteStride": 12,
            "componentType": 5126,
            "count": 8640,
            "max": [
                1,
                1,
                1
            ],
            "min": [
                -1,
                -1,
                -0.996996
            ],
            "type": "VEC3"
        },
        "accessor_54": {
            "bufferView": "bufferView_138",
            "byteOffset": 268800,
            "byteStride": 8,
            "componentType": 5126,
            "count": 8640,
            "max": [
                0.353453,
                0.890613
            ],
            "min": [
                0.0174575,
                0.845515
            ],
            "type": "VEC2"
        },
        "accessor_75": {
            "bufferView": "bufferView_137",
            "byteOffset": 21120,
            "byteStride": 2,
            "componentType": 5123,
            "count": 1008,
            "max": [
                503
            ],
            "min": [
                0
            ],
            "type": "SCALAR"
        },
        "accessor_77": {
            "bufferView": "bufferView_138",
            "byteOffset": 337920,
            "byteStride": 12,
            "componentType": 5126,
            "count": 1008,
            "max": [
                -10.9926,
                1.17404,
                -0.322131
            ],
            "min": [
                -12.3666,
                -1.17404,
                -0.940553
            ],
            "type": "VEC3"
        },
        "accessor_79": {
            "bufferView": "bufferView_138",
            "byteOffset": 350016,
            "byteStride": 12,
            "componentType": 5126,
            "count": 1008,
            "max": [
                0.754099,
                0.998773,
                0.997274
            ],
            "min": [
                -0.985138,
                -0.998773,
                -0.797711
            ],
            "type": "VEC3"
        },
        "accessor_81": {
            "bufferView": "bufferView_138",
            "byteOffset": 362112,
            "byteStride": 8,
            "componentType": 5126,
            "count": 1008,
            "max": [
                0.789551,
                0.85349
            ],
            "min": [
                0.549551,
                0.801149
            ],
            "type": "VEC2"
        }
    },
    "animations": {},
    "asset": {
        "generator": "collada2gltf@8f1f989390ac62ae7ffcc36d31b3d6be127545a6",
        "premultipliedAlpha": true,
        "profile": {
            "api": "WebGL",
            "version": "1.0.2"
        },
        "version": "1.0.1"
    },
    "bufferViews": {
        "bufferView_137": {
            "buffer": "e145",
            "byteLength": 105012,
            "byteOffset": 0,
            "target": 34963
        },
        "bufferView_138": {
            "buffer": "e145",
            "byteLength": 1665744,
            "byteOffset": 105012,
            "target": 34962
        }
    },
    "buffers": {
        "e145": {
            "byteLength": 1770756,
            "type": "arraybuffer",
            "uri": "data:application/octet-stream;base64,"
        }
    },
    "images": {
        "texture_png_002": {
            "name": "texture_png_002",
            "uri": "data:application/octet-stream;base64,"
        }
    },
    "materials": {
        "Transparent-effect": {
            "name": "Transparent",
            "technique": "technique0",
            "values": {
                "ambient": [
                    0,
                    0,
                    0,
                    1
                ],
                "diffuse": [
                    0.8,
                    0.8,
                    0.8,
                    1
                ],
                "emission": [
                    0,
                    0,
                    0,
                    1
                ],
                "shininess": 128,
                "specular": [
                    1,
                    1,
                    1,
                    1
                ],
                "transparency": 0.3
            }
        },
        "ac3dmat1-effect": {
            "name": "ac3dmat1",
            "technique": "technique1",
            "values": {
                "ambient": [
                    0,
                    0,
                    0,
                    1
                ],
                "diffuse": "texture_texture_png_002",
                "emission": [
                    0,
                    0,
                    0,
                    1
                ],
                "shininess": 41,
                "specular": [
                    0.5,
                    0.5,
                    0.5,
                    1
                ]
            }
        }
    },
    "meshes": {
        "AOA-mesh": {
            "name": "AOA",
            "primitives": [
                {
                    "attributes": {
                        "NORMAL": "accessor_25",
                        "POSITION": "accessor_23",
                        "TEXCOORD_0": "accessor_27"
                    },
                    "indices": "accessor_21",
                    "material": "ac3dmat1-effect",
                    "mode": 4
                }
            ]
        },
        "antennes-mesh": {
            "name": "antennes",
            "primitives": [
                {
                    "attributes": {
                        "NORMAL": "accessor_52",
                        "POSITION": "accessor_50",
                        "TEXCOORD_0": "accessor_54"
                    },
                    "indices": "accessor_48",
                    "material": "ac3dmat1-effect",
                    "mode": 4
                }
            ]
        },
        "contourvitres-mesh": {
            "name": "contourvitres",
            "primitives": [
                {
                    "attributes": {
                        "NORMAL": "accessor_79",
                        "POSITION": "accessor_77",
                        "TEXCOORD_0": "accessor_81"
                    },
                    "indices": "accessor_75",
                    "material": "ac3dmat1-effect",
                    "mode": 4
                }
            ]
        },
        "direction-mesh": {
            "name": "direction",
            "primitives": [
                {
                    "attributes": {
                        "NORMAL": "accessor_106",
                        "POSITION": "accessor_104",
                        "TEXCOORD_0": "accessor_108"
                    },
                    "indices": "accessor_102",
                    "material": "ac3dmat1-effect",
                    "mode": 4
                }
            ]
        },
        "vitres-mesh": {
            "name": "vitres",
            "primitives": [
                {
                    "attributes": {
                        "NORMAL": "accessor_133",
                        "POSITION": "accessor_131"
                    },
                    "indices": "accessor_129",
                    "material": "Transparent-effect",
                    "mode": 4
                }
            ]
        }
    },
    "nodes": {
        "AOA": {
            "children": [],
            "matrix": [
                -1,
                -1.50996e-07,
                0,
                0,
                1.50996e-07,
                -1,
                0,
                0,
                0,
                0,
                1,
                0,
                13.5641,
                1.20085,
                -0.620032,
                1
            ],
            "meshes": [
                "AOA-mesh"
            ],
            "name": "AOA"
        },
        "antennes": {
            "children": [],
            "matrix": [
                -1,
                -1.50996e-07,
                0,
                0,
                1.50996e-07,
                -1,
                0,
                0,
                0,
                0,
                1,
                0,
                4.16128,
                0.142767,
                -0.693655,
                1
            ],
            "meshes": [
                "antennes-mesh"
            ],
            "name": "antennes"
        },
        "contourvitres": {
            "children": [],
            "matrix": [
                -1,
                -1.50996e-07,
                0,
                0,
                1.50996e-07,
                -1,
                0,
                0,
                0,
                0,
                1,
                0,
                1.68216,
                0.142768,
                0.447799,
                1
            ],
            "meshes": [
                "contourvitres-mesh"
            ],
            "name": "contourvitres"
        },
        "direction": {
            "children": [],
            "matrix": [
                -1,
                -1.50996e-07,
                0,
                0,
                1.50996e-07,
                -1,
                0,
                0,
                0,
                0,
                1,
                0,
                -11.3096,
                0.142766,
                1.36505,
                1
            ],
            "meshes": [
                "direction-mesh"
            ],
            "name": "direction"
        },
        "node_5": {
            "children": [
                "AOA",
                "antennes",
                "contourvitres",
                "direction",
                "vitres"
            ],
            "matrix": [
                1,
                0,
                0,
                0,
                0,
                0,
                -1,
                0,
                0,
                1,
                0,
                0,
                0,
                0,
                0,
                1
            ],
            "name": "Y_UP_Transform"
        },
        "vitres": {
            "children": [],
            "matrix": [
                -1,
                -1.50996e-07,
                0,
                0,
                1.50996e-07,
                -1,
                0,
                0,
                0,
                0,
                1,
                0,
                5.37862,
                0.142767,
                -0.203739,
                1
            ],
            "meshes": [
                "vitres-mesh"
            ],
            "name": "vitres"
        }
    },
    "programs": {
        "program_0": {
            "attributes": [
                "a_normal",
                "a_position"
            ],
            "fragmentShader": "e1450FS",
            "vertexShader": "e1450VS"
        },
        "program_1": {
            "attributes": [
                "a_normal",
                "a_position",
                "a_texcoord0"
            ],
            "fragmentShader": "e1451FS",
            "vertexShader": "e1451VS"
        }
    },
    "samplers": {
        "sampler_0": {
            "magFilter": 9729,
            "minFilter": 9729,
            "wrapS": 10497,
            "wrapT": 10497
        }
    },
    "scene": "defaultScene",
    "scenes": {
        "defaultScene": {
            "nodes": [
                "node_5"
            ]
        }
    },
    "shaders": {
        "e1450FS": {
            "type": 35632,
            "uri": "data:text/plain;base64,"
        },
        "e1450VS": {
            "type": 35633,
            "uri": "data:text/plain;base64,"
        },
        "e1451FS": {
            "type": 35632,
            "uri": "data:text/plain;base64,"
        },
        "e1451VS": {
            "type": 35633,
            "uri": "data:text/plain;base64,"
        }
    },
    "skins": {},
    "techniques": {
        "technique0": {
            "attributes": {
                "a_normal": "normal",
                "a_position": "position"
            },
            "parameters": {
                "ambient": {
                    "type": 35666
                },
                "diffuse": {
                    "type": 35666
                },
                "emission": {
                    "type": 35666
                },
                "modelViewMatrix": {
                    "semantic": "MODELVIEW",
                    "type": 35676
                },
                "normal": {
                    "semantic": "NORMAL",
                    "type": 35665
                },
                "normalMatrix": {
                    "semantic": "MODELVIEWINVERSETRANSPOSE",
                    "type": 35675
                },
                "position": {
                    "semantic": "POSITION",
                    "type": 35665
                },
                "projectionMatrix": {
                    "semantic": "PROJECTION",
                    "type": 35676
                },
                "shininess": {
                    "type": 5126
                },
                "specular": {
                    "type": 35666
                },
                "transparency": {
                    "type": 5126
                }
            },
            "program": "program_0",
            "states": {
                "enable": [
                    2929,
                    3042
                ],
                "functions": {
                    "blendEquationSeparate": [
                        32774,
                        32774
                    ],
                    "blendFuncSeparate": [
                        1,
                        771,
                        1,
                        771
                    ],
                    "depthMask": [
                        false
                    ]
                }
            },
            "uniforms": {
                "u_ambient": "ambient",
                "u_diffuse": "diffuse",
                "u_emission": "emission",
                "u_modelViewMatrix": "modelViewMatrix",
                "u_normalMatrix": "normalMatrix",
                "u_projectionMatrix": "projectionMatrix",
                "u_shininess": "shininess",
                "u_specular": "specular",
                "u_transparency": "transparency"
            }
        },
        "technique1": {
            "attributes": {
                "a_normal": "normal",
                "a_position": "position",
                "a_texcoord0": "texcoord0"
            },
            "parameters": {
                "ambient": {
                    "type": 35666
                },
                "diffuse": {
                    "type": 35678
                },
                "emission": {
                    "type": 35666
                },
                "modelViewMatrix": {
                    "semantic": "MODELVIEW",
                    "type": 35676
                },
                "normal": {
                    "semantic": "NORMAL",
                    "type": 35665
                },
                "normalMatrix": {
                    "semantic": "MODELVIEWINVERSETRANSPOSE",
                    "type": 35675
                },
                "position": {
                    "semantic": "POSITION",
                    "type": 35665
                },
                "projectionMatrix": {
                    "semantic": "PROJECTION",
                    "type": 35676
                },
                "shininess": {
                    "type": 5126
                },
                "specular": {
                    "type": 35666
                },
                "texcoord0": {
                    "semantic": "TEXCOORD_0",
                    "type": 35664
                }
            },
            "program": "program_1",
            "states": {
                "enable": [
                    2929,
                    2884
                ]
            },
            "uniforms": {
                "u_ambient": "ambient",
                "u_diffuse": "diffuse",
                "u_emission": "emission",
                "u_modelViewMatrix": "modelViewMatrix",
                "u_normalMatrix": "normalMatrix",
                "u_projectionMatrix": "projectionMatrix",
                "u_shininess": "shininess",
                "u_specular": "specular"
            }
        }
    },
    "textures": {
        "texture_texture_png_002": {
            "format": 6408,
            "internalFormat": 6408,
            "sampler": "sampler_0",
            "source": "texture_png_002",
            "target": 3553,
            "type": 5121
        }
    }
}