{
    "accessors": {
        "accessor_78": {
            "bufferView": "bufferView_98",
            "byteOffset": 0,
            "byteStride": 2,
            "componentType": 5123,
            "count": 2,
            "max": [
                0
            ],
            "min": [
                0
            ],
            "type": "SCALAR"
        },
        "accessor_81": {
            "bufferView": "bufferView_98",
            "byteOffset": 4,
            "byteStride": 2,
            "componentType": 5123,
            "count": 53709,
            "max": [
                26856
            ],
            "min": [
                0
            ],
            "type": "SCALAR"
        },
        "accessor_84": {
            "bufferView": "bufferView_98",
            "byteOffset": 107422,
            "byteStride": 2,
            "componentType": 5123,
            "count": 1956,
            "max": [
                54688
            ],
            "min": [
                0
            ],
            "type": "SCALAR"
        },
        "accessor_87": {
            "bufferView": "bufferView_98",
            "byteOffset": 111334,
            "byteStride": 2,
            "componentType": 5123,
            "count": 468,
            "max": [
                55900
            ],
            "min": [
                0
            ],
            "type": "SCALAR"
        },
        "accessor_90": {
            "bufferView": "bufferView_98",
            "byteOffset": 112270,
            "byteStride": 2,
            "componentType": 5123,
            "count": 2880,
            "max": [
                57574
            ],
            "min": [
                0
            ],
            "type": "SCALAR"
        },
        "accessor_92": {
            "bufferView": "bufferView_99",
            "byteOffset": 0,
            "byteStride": 12,
            "componentType": 5126,
            "count": 59015,
            "max": [
                11.03,
                14.5076,
                4.70023
            ],
            "min": [
                -11.0562,
                -14.5076,
                -4.02745
            ],
            "type": "VEC3"
        },
        "accessor_94": {
            "bufferView": "bufferView_99",
            "byteOffset": 708180,
            "byteStride": 12,
            "componentType": 5126,
            "count": 59015,
            "max": [
                1,
                1,
                1
            ],
            "min": [
                -1,
                -1,
                -1
            ],
            "type": "VEC3"
        },
        "accessor_96": {
            "bufferView": "bufferView_99",
            "byteOffset": 1416360,
            "byteStride": 8,
            "componentType": 5126,
            "count": 59015,
            "max": [
                1,
                1
            ],
            "min": [
                0,
                0
            ],
            "type": "VEC2"
        }
    },
    "animations": {},
    "asset": {
        "generator": "collada2gltf@8f1f989390ac62ae7ffcc36d31b3d6be127545a6",
        "premultipliedAlpha": true,
        "profile": {
            "api": "WebGL",
            "version": "1.0.2"
        },
        "version": "1.0.1"
    },
    "bufferViews": {
        "bufferView_98": {
            "buffer": "dhc4",
            "byteLength": 118032,
            "byteOffset": 0,
            "target": 34963
        },
        "bufferView_99": {
            "buffer": "dhc4",
            "byteLength": 1888480,
            "byteOffset": 118032,
            "target": 34962
        }
    },
    "buffers": {
        "dhc4": {
            "byteLength": 2006512,
            "type": "arraybuffer",
            "uri": "data:application/octet-stream;base64,"
        }
    },
    "images": {
        "prop_png_001": {
            "name": "prop_png_001",
            "uri": "data:application/octet-stream;base64,"
        },
        "texture_png_001": {
            "name": "texture_png_001",
            "uri": "data:application/octet-stream;base64,"
        }
    },
    "materials": {
        "DefaultWhite-effect": {
            "name": "DefaultWhite",
            "technique": "technique0",
            "values": {
                "ambient": [
                    0,
                    0,
                    0,
                    1
                ],
                "diffuse": "texture_texture_png_001",
                "emission": [
                    0,
                    0,
                    0,
                    1
                ],
                "shininess": 256,
                "specular": [
                    0.5,
                    0.5,
                    0.5,
                    1
                ]
            }
        },
        "DefaultWhite_004-effect": {
            "name": "DefaultWhite_004",
            "technique": "technique0",
            "values": {
                "ambient": [
                    0,
                    0,
                    0,
                    1
                ],
                "diffuse": "texture_texture_png_001",
                "emission": [
                    0,
                    0,
                    0,
                    1
                ],
                "shininess": 256,
                "specular": [
                    0.5,
                    0.5,
                    0.5,
                    1
                ]
            }
        },
        "__glTF__defaultMaterial1": {
            "name": "__glTF__defaultMaterial1",
            "technique": "technique1",
            "values": {
                "diffuse": [
                    1,
                    1,
                    1,
                    1
                ]
            }
        },
        "transparent-effect": {
            "name": "transparent",
            "technique": "technique2",
            "values": {
                "ambient": [
                    0,
                    0,
                    0,
                    1
                ],
                "diffuse": "texture_prop_png_001",
                "emission": [
                    0,
                    0,
                    0,
                    1
                ],
                "shininess": 256,
                "specular": [
                    1,
                    1,
                    1,
                    1
                ]
            }
        },
        "transparent_001-effect": {
            "name": "transparent_001",
            "technique": "technique3",
            "values": {
                "ambient": [
                    0,
                    0,
                    0,
                    1
                ],
                "diffuse": [
                    0.437673,
                    0.452499,
                    0.476785,
                    1
                ],
                "emission": [
                    0,
                    0,
                    0,
                    1
                ],
                "shininess": 256,
                "specular": [
                    1,
                    1,
                    1,
                    1
                ],
                "transparency": 0.3
            }
        }
    },
    "meshes": {
        "fuselage-mesh": {
            "name": "fuselage",
            "primitives": [
                {
                    "attributes": {
                        "POSITION": "accessor_92"
                    },
                    "indices": "accessor_78",
                    "material": "__glTF__defaultMaterial1",
                    "mode": 1
                },
                {
                    "attributes": {
                        "NORMAL": "accessor_94",
                        "POSITION": "accessor_92",
                        "TEXCOORD_0": "accessor_96"
                    },
                    "indices": "accessor_81",
                    "material": "DefaultWhite-effect",
                    "mode": 4
                },
                {
                    "attributes": {
                        "NORMAL": "accessor_94",
                        "POSITION": "accessor_92"
                    },
                    "indices": "accessor_84",
                    "material": "transparent_001-effect",
                    "mode": 4
                },
                {
                    "attributes": {
                        "NORMAL": "accessor_94",
                        "POSITION": "accessor_92",
                        "TEXCOORD_0": "accessor_96"
                    },
                    "indices": "accessor_87",
                    "material": "transparent-effect",
                    "mode": 4
                },
                {
                    "attributes": {
                        "NORMAL": "accessor_94",
                        "POSITION": "accessor_92",
                        "TEXCOORD_0": "accessor_96"
                    },
                    "indices": "accessor_90",
                    "material": "DefaultWhite_004-effect",
                    "mode": 4
                }
            ]
        }
    },
    "nodes": {
        "fuselage": {
            "children": [],
            "matrix": [
                -1,
                -1.50996e-07,
                0,
                0,
                1.50996e-07,
                -1,
                0,
                0,
                0,
                0,
                1,
                0,
                0,
                0,
                0,
                1
            ],
            "meshes": [
                "fuselage-mesh"
            ],
            "name": "fuselage"
        },
        "node_1": {
            "children": [
                "fuselage"
            ],
            "matrix": [
                1,
                0,
                0,
                0,
                0,
                0,
                -1,
                0,
                0,
                1,
                0,
                0,
                0,
                0,
                0,
                1
            ],
            "name": "Y_UP_Transform"
        }
    },
    "programs": {
        "program_0": {
            "attributes": [
                "a_normal",
                "a_position",
                "a_texcoord0"
            ],
            "fragmentShader": "dhc40FS",
            "vertexShader": "dhc40VS"
        },
        "program_1": {
            "attributes": [
                "a_position"
            ],
            "fragmentShader": "dhc41FS",
            "vertexShader": "dhc41VS"
        },
        "program_2": {
            "attributes": [
                "a_normal",
                "a_position",
                "a_texcoord0"
            ],
            "fragmentShader": "dhc42FS",
            "vertexShader": "dhc42VS"
        },
        "program_3": {
            "attributes": [
                "a_normal",
                "a_position"
            ],
            "fragmentShader": "dhc43FS",
            "vertexShader": "dhc43VS"
        }
    },
    "samplers": {
        "sampler_0": {
            "magFilter": 9729,
            "minFilter": 9729,
            "wrapS": 10497,
            "wrapT": 10497
        }
    },
    "scene": "defaultScene",
    "scenes": {
        "defaultScene": {
            "nodes": [
                "node_1"
            ]
        }
    },
    "shaders": {
        "dhc40FS": {
            "type": 35632,
            "uri": "data:text/plain;base64,"
        },
        "dhc40VS": {
            "type": 35633,
            "uri": "data:text/plain;base64,"
        },
        "dhc41FS": {
            "type": 35632,
            "uri": "data:text/plain;base64,"
        },
        "dhc41VS": {
            "type": 35633,
            "uri": "data:text/plain;base64,"
        },
        "dhc42FS": {
            "type": 35632,
            "uri": "data:text/plain;base64,"
        },
        "dhc42VS": {
            "type": 35633,
            "uri": "data:text/plain;base64,"
        },
        "dhc43FS": {
            "type": 35632,
            "uri": "data:text/plain;base64,"
        },
        "dhc43VS": {
            "type": 35633,
            "uri": "data:text/plain;base64,"
        }
    },
    "skins": {},
    "techniques": {
        "technique0": {
            "attributes": {
                "a_normal": "normal",
                "a_position": "position",
                "a_texcoord0": "texcoord0"
            },
            "parameters": {
                "ambient": {
                    "type": 35666
                },
                "diffuse": {
                    "type": 35678
                },
                "emission": {
                    "type": 35666
                },
                "modelViewMatrix": {
                    "semantic": "MODELVIEW",
                    "type": 35676
                },
                "normal": {
                    "semantic": "NORMAL",
                    "type": 35665
                },
                "normalMatrix": {
                    "semantic": "MODELVIEWINVERSETRANSPOSE",
                    "type": 35675
                },
                "position": {
                    "semantic": "POSITION",
                    "type": 35665
                },
                "projectionMatrix": {
                    "semantic": "PROJECTION",
                    "type": 35676
                },
                "shininess": {
                    "type": 5126
                },
                "specular": {
                    "type": 35666
                },
                "texcoord0": {
                    "semantic": "TEXCOORD_0",
                    "type": 35664
                }
            },
            "program": "program_0",
            "states": {
                "enable": [
                    2929,
                    2884
                ]
            },
            "uniforms": {
                "u_ambient": "ambient",
                "u_diffuse": "diffuse",
                "u_emission": "emission",
                "u_modelViewMatrix": "modelViewMatrix",
                "u_normalMatrix": "normalMatrix",
                "u_projectionMatrix": "projectionMatrix",
                "u_shininess": "shininess",
                "u_specular": "specular"
            }
        },
        "technique1": {
            "attributes": {
                "a_position": "position"
            },
            "parameters": {
                "diffuse": {
                    "type": 35666
                },
                "modelViewMatrix": {
                    "semantic": "MODELVIEW",
                    "type": 35676
                },
                "position": {
                    "semantic": "POSITION",
                    "type": 35665
                },
                "projectionMatrix": {
                    "semantic": "PROJECTION",
                    "type": 35676
                }
            },
            "program": "program_1",
            "states": {
                "enable": [
                    2929,
                    2884
                ]
            },
            "uniforms": {
                "u_diffuse": "diffuse",
                "u_modelViewMatrix": "modelViewMatrix",
                "u_projectionMatrix": "projectionMatrix"
            }
        },
        "technique2": {
            "attributes": {
                "a_normal": "normal",
                "a_position": "position",
                "a_texcoord0": "texcoord0"
            },
            "parameters": {
                "ambient": {
                    "type": 35666
                },
                "diffuse": {
                    "type": 35678
                },
                "emission": {
                    "type": 35666
                },
                "modelViewMatrix": {
                    "semantic": "MODELVIEW",
                    "type": 35676
                },
                "normal": {
                    "semantic": "NORMAL",
                    "type": 35665
                },
                "normalMatrix": {
                    "semantic": "MODELVIEWINVERSETRANSPOSE",
                    "type": 35675
                },
                "position": {
                    "semantic": "POSITION",
                    "type": 35665
                },
                "projectionMatrix": {
                    "semantic": "PROJECTION",
                    "type": 35676
                },
                "shininess": {
                    "type": 5126
                },
                "specular": {
                    "type": 35666
                },
                "texcoord0": {
                    "semantic": "TEXCOORD_0",
                    "type": 35664
                }
            },
            "program": "program_2",
            "states": {
                "enable": [
                    2929,
                    3042
                ],
                "functions": {
                    "blendEquationSeparate": [
                        32774,
                        32774
                    ],
                    "blendFuncSeparate": [
                        1,
                        771,
                        1,
                        771
                    ],
                    "depthMask": [
                        false
                    ]
                }
            },
            "uniforms": {
                "u_ambient": "ambient",
                "u_diffuse": "diffuse",
                "u_emission": "emission",
                "u_modelViewMatrix": "modelViewMatrix",
                "u_normalMatrix": "normalMatrix",
                "u_projectionMatrix": "projectionMatrix",
                "u_shininess": "shininess",
                "u_specular": "specular"
            }
        },
        "technique3": {
            "attributes": {
                "a_normal": "normal",
                "a_position": "position"
            },
            "parameters": {
                "ambient": {
                    "type": 35666
                },
                "diffuse": {
                    "type": 35666
                },
                "emission": {
                    "type": 35666
                },
                "modelViewMatrix": {
                    "semantic": "MODELVIEW",
                    "type": 35676
                },
                "normal": {
                    "semantic": "NORMAL",
                    "type": 35665
                },
                "normalMatrix": {
                    "semantic": "MODELVIEWINVERSETRANSPOSE",
                    "type": 35675
                },
                "position": {
                    "semantic": "POSITION",
                    "type": 35665
                },
                "projectionMatrix": {
                    "semantic": "PROJECTION",
                    "type": 35676
                },
                "shininess": {
                    "type": 5126
                },
                "specular": {
                    "type": 35666
                },
                "transparency": {
                    "type": 5126
                }
            },
            "program": "program_3",
            "states": {
                "enable": [
                    2929,
                    3042
                ],
                "functions": {
                    "blendEquationSeparate": [
                        32774,
                        32774
                    ],
                    "blendFuncSeparate": [
                        1,
                        771,
                        1,
                        771
                    ],
                    "depthMask": [
                        false
                    ]
                }
            },
            "uniforms": {
                "u_ambient": "ambient",
                "u_diffuse": "diffuse",
                "u_emission": "emission",
                "u_modelViewMatrix": "modelViewMatrix",
                "u_normalMatrix": "normalMatrix",
                "u_projectionMatrix": "projectionMatrix",
                "u_shininess": "shininess",
                "u_specular": "specular",
                "u_transparency": "transparency"
            }
        }
    },
    "textures": {
        "texture_prop_png_001": {
            "format": 6408,
            "internalFormat": 6408,
            "sampler": "sampler_0",
            "source": "prop_png_001",
            "target": 3553,
            "type": 5121
        },
        "texture_texture_png_001": {
            "format": 6408,
            "internalFormat": 6408,
            "sampler": "sampler_0",
            "source": "texture_png_001",
            "target": 3553,
            "type": 5121
        }
    }
}